<svg xmlns="http://www.w3.org/2000/svg" fill="none" viewBox="0 0 48 48" id="Chroma--Streamline-Svg-Logos" height="48" width="48">
  <desc>
    Chroma Streamline Icon: https://streamlinehq.com
  </desc>
  <path fill="#ffde2d" d="M31.83315 39.04c8.65245 0 15.66665 -6.7336 15.66665 -15.03995 0 -8.30635 -7.0142 -15.03995 -15.66665 -15.03995 -8.65245 0 -15.66665 6.7336 -15.66665 15.03995 0 8.30635 7.0142 15.03995 15.66665 15.03995Z" stroke-width="0.5"></path>
  <path fill="#327eff" d="M16.16665 39.04c8.65245 0 15.66665 -6.7336 15.66665 -15.03995 0 -8.30635 -7.0142 -15.03995 -15.66665 -15.03995C7.5142 8.9601 0.5 15.6937 0.5 24.00005 0.5 32.3064 7.5142 39.04 16.16665 39.04Z" stroke-width="0.5"></path>
  <path fill="#ff6446" d="M31.83325 24.00005c0 8.3064 -7.01425 15.03985 -15.66675 15.03985V24.00005h15.66675Zm-15.66675 0c0 -8.30635 7.0142 -15.03995 15.66675 -15.03995v15.03995H16.1665Z" stroke-width="0.5"></path>
</svg>