<svg xmlns="http://www.w3.org/2000/svg" fill="none" viewBox="0 0 48 48" id="Mongodb-Icon--Streamline-Svg-Logos" height="48" width="48">
  <desc>
    Mongodb Icon Streamline Icon: https://streamlinehq.com
  </desc>
  <path fill="#01ec64" d="M28.0825 5.73845c-1.97255 -2.34038 -3.6712 -4.717345 -4.0182 -5.211025 -0.03655 -0.036567 -0.09135 -0.036567 -0.12785 0 -0.34705 0.49368 -2.04565 2.870645 -4.01825 5.211025C2.98692 27.33225 22.58485 41.905 22.58485 41.905l0.1644 0.1097C22.89535 44.2636 23.26065 47.5 23.26065 47.5h1.46115s0.3653 -3.21815 0.51145 -5.4853l0.16435 -0.128c0.01825 0.0183 19.61625 -14.55445 2.6849 -36.14825Zm-4.0913 35.83735s-0.87665 -0.7496 -1.1141 -1.1335v-0.03675l1.05935 -23.5136c0 -0.07315 0.1096 -0.07315 0.1096 0l1.0593 23.5136v0.03675c-0.2374 0.3839 -1.11415 1.1335 -1.11415 1.1335Z" stroke-width="0.5"></path>
</svg>